<svg width="400" height="426" viewBox="0 0 400 426" fill="none" xmlns="http://www.w3.org/2000/svg">
    <path fill-rule="evenodd" clip-rule="evenodd" d="M314.6 51.523C311.843 52.479 311.689 53.014 312.39 59.173C312.605 61.058 312.975 64.67 313.212 67.2C313.449 69.73 313.815 72.52 314.027 73.4C314.238 74.28 314.689 78.96 315.029 83.8C315.369 88.64 315.813 94.94 316.015 97.8C316.51 104.796 316.494 104.536 316.444 105.086C316.42 105.353 315.854 106.194 315.187 106.954L313.973 108.336L311.887 106.966C309.849 105.628 308.471 103.312 308.417 101.133C308.397 100.333 306.878 96.703 306.441 96.408C306.271 96.294 305.612 94.85 304.976 93.2C304.341 91.55 303.231 89.369 302.511 88.352C301.79 87.336 301.2 86.322 301.2 86.099C301.2 85.876 300.48 85.043 299.6 84.248C298.72 83.453 298 82.627 298 82.414C298 82.2 297.023 81.304 295.829 80.421C294.635 79.539 293.542 78.63 293.4 78.4C293.258 78.17 292.044 77.428 290.702 76.75C289.359 76.073 288.012 75.269 287.706 74.963C287.401 74.658 285.857 74.035 284.276 73.579C282.694 73.123 280.317 72.404 278.993 71.982C272.287 69.843 272.143 69.836 233.583 69.817C193.105 69.798 196.11 69.552 195.254 72.951C194.355 76.521 194.652 195.985 195.563 197.169C196.944 198.967 197.969 199.015 229.4 198.761C261.522 198.502 262.359 198.447 267.982 196.236C269.862 195.498 272.007 194.763 272.749 194.604C273.94 194.349 276.649 193.018 277.2 192.418C277.31 192.298 278.3 191.756 279.4 191.212C281.544 190.154 284.268 188.101 285.958 186.271C288.967 183.012 290 181.765 290 181.393C290 181.167 290.604 180.064 291.343 178.943C293.311 175.955 293.751 174.484 295.582 164.789C296.644 159.162 300.015 156.894 301.782 160.618C302.434 161.993 302.872 247.313 302.232 248.349C301.661 249.272 299.212 250.034 298.33 249.562C296.266 248.458 296.131 248.172 294.396 241.2C293.542 237.77 292.541 235.2 292.06 235.2C291.878 235.2 291.262 234.255 290.69 233.1C289.488 230.672 284.475 225.104 281.938 223.38C280.982 222.731 279.763 221.805 279.229 221.323C278.694 220.84 277.344 220.232 276.229 219.97C275.113 219.709 274.02 219.362 273.8 219.2C273.58 219.037 272.68 218.677 271.8 218.4C270.92 218.123 270.02 217.758 269.8 217.59C268.319 216.46 199.931 215.686 197.086 216.767C194.905 217.596 195.01 215.1 194.872 269.6C194.741 321.291 194.889 328.049 196.261 332.858C196.597 334.036 197.185 336.17 197.568 337.6C197.95 339.03 198.401 340.56 198.569 341C198.737 341.44 199.06 342.295 199.286 342.9C199.512 343.505 199.834 344 200.002 344C200.17 344 200.711 344.995 201.205 346.211C202.716 349.935 207.188 354.524 211.4 356.673C212.94 357.459 214.292 358.245 214.405 358.42C214.675 358.841 220.447 360.234 225.2 361.024C232.527 362.243 240.683 362.408 287.6 362.28L334.6 362.153L339.005 360.561C349.098 356.912 355.237 349.905 357.018 340C357.707 336.167 357.867 78.722 357.182 74.4C356.696 71.324 355.218 66.4 354.782 66.4C354.614 66.4 354.011 65.606 353.442 64.635C351.281 60.947 346.201 56.447 342.063 54.555C340.882 54.014 339.658 53.315 339.344 53.001C337.982 51.639 317.75 50.43 314.6 51.523ZM336.854 52.463C337.704 52.718 338.4 53.053 338.4 53.208C338.4 53.363 339.615 54.088 341.099 54.819C346.292 57.376 350.354 60.882 353.082 65.165C353.866 66.394 354.646 67.49 354.816 67.601C354.986 67.711 355.454 69.151 355.855 70.801C356.765 74.542 357.27 336.169 356.375 340.4C355.426 344.89 354.729 346.907 353.808 347.829C353.288 348.349 352.735 349.185 352.581 349.687C352.264 350.714 347.238 355.982 346.566 355.993C346.327 355.997 345.334 356.621 344.359 357.381C343.35 358.167 341.598 359.019 340.289 359.36C339.025 359.689 337.826 360.06 337.626 360.184C335.119 361.733 229.329 361.729 224.349 360.18C223.992 360.069 222.188 359.733 220.342 359.434C218.496 359.135 216.339 358.527 215.548 358.083C213.144 356.733 212.669 356.488 210.798 355.64C208.342 354.527 202.826 348.853 202.203 346.8C202.036 346.25 201.378 345.02 200.741 344.068C200.094 343.099 199.126 340.629 198.547 338.468C197.977 336.34 197.247 333.712 196.923 332.626C196.6 331.541 196.173 329.111 195.975 327.226C195.558 323.266 195.541 220.302 195.957 218.8C196.525 216.748 196.679 216.74 231.8 216.902C265.919 217.059 267.508 217.142 271.151 218.954C271.728 219.241 273.1 219.7 274.2 219.975C279.274 221.242 288.243 228.777 290.172 233.395C290.479 234.129 291.095 235.095 291.541 235.541C292.463 236.463 293.741 240.451 294.458 244.645C294.998 247.803 295.493 248.602 297.72 249.906L299.239 250.796L300.918 249.94C301.842 249.469 302.817 248.794 303.086 248.442C303.464 247.946 303.577 238.121 303.587 205.213C303.602 157.249 303.758 159.83 300.759 158.63C297.402 157.287 295.384 159.945 294.408 167C293.676 172.289 292.8 175.244 291.159 177.965C290.301 179.387 289.6 180.722 289.6 180.933C289.6 181.268 288.642 182.401 285.4 185.903C283.464 187.994 280.808 189.985 278.4 191.149C276.97 191.841 275.016 192.831 274.057 193.35C273.098 193.868 271.298 194.516 270.057 194.791C268.816 195.065 267.62 195.43 267.4 195.603C266.319 196.451 260.77 197.644 256.157 198.021C247.672 198.715 198.517 198.36 197 197.595L195.8 196.989L195.699 135.731C195.588 68.893 195.498 71.646 197.817 70.87C201.746 69.555 271.196 70.393 275.356 71.806C276.268 72.115 278.001 72.574 279.207 72.825C282.259 73.461 286.349 74.793 286.626 75.242C286.753 75.448 288.149 76.23 289.729 76.98C291.308 77.73 293.129 78.896 293.775 79.572C294.421 80.247 295.141 80.812 295.375 80.826C295.609 80.84 296.25 81.382 296.8 82.029C297.35 82.676 298.475 83.863 299.3 84.667C300.125 85.471 300.8 86.312 300.8 86.536C300.8 86.761 301.502 88.037 302.359 89.372C303.216 90.707 304.037 92.25 304.183 92.8C304.329 93.35 305.151 95.24 306.011 97C306.871 98.76 307.869 101.37 308.228 102.8C308.983 105.798 309.323 106.26 312.012 107.931L313.987 109.159L315.174 108.161C317.03 106.599 317.659 105.014 317.203 103.051C316.992 102.143 316.543 97.35 316.206 92.4C315.21 77.761 314.802 72.751 314.38 70C312.736 59.259 312.425 53.058 313.5 52.432C314.512 51.843 334.873 51.87 336.854 52.463ZM66.71 54.117C65.787 55.04 64.557 55.685 62.712 56.213C60.773 56.769 59.936 57.221 59.638 57.877C59.412 58.373 58.557 59.058 57.737 59.4C56.007 60.123 52.962 63.074 52.038 64.922C51.687 65.625 50.987 66.38 50.483 66.6C49.979 66.82 49.486 67.36 49.386 67.8C48.216 72.997 48.2 74.828 48.209 207C48.219 353.588 48.097 346.857 50.761 347.863C51.62 348.187 52.052 348.691 52.3 349.657C52.527 350.536 53.033 351.187 53.766 351.542C54.382 351.841 55.18 352.598 55.54 353.225C55.935 353.913 56.869 354.623 57.892 355.014C58.826 355.371 59.937 356.15 60.361 356.746C61.709 358.638 64.86 358.919 81.633 358.643C97.765 358.378 101.324 358.122 102.8 357.123C103.35 356.75 104.7 356.233 105.8 355.972C111.15 354.706 115.079 351.405 116.956 346.6C117.558 345.06 118.336 343.58 118.686 343.312C119.376 342.781 120.156 339.454 120.916 333.8C121.612 328.625 121.618 91.26 120.923 86.6C119.851 79.42 119.511 77.781 119.009 77.386C118.403 76.909 117.38 74.632 116.555 71.924C116.224 70.837 115.687 69.955 115.278 69.825C114.89 69.702 114.253 69.06 113.863 68.398C113.472 67.737 112.578 66.904 111.876 66.547C111.174 66.19 110.127 65.433 109.549 64.864C108.763 64.092 107.599 63.645 104.949 63.096C99.088 61.882 98.26 61.677 96.8 61.079C95.997 60.75 93.286 60.404 90.444 60.269C84.193 59.972 83.694 59.639 83.517 55.646L83.4 53L75.722 52.891L68.044 52.783L66.71 54.117Z" fill="#949A9E"/>
    <path fill-rule="evenodd" clip-rule="evenodd" d="M315.067 53.069C314.254 53.294 314.329 54.702 315.422 59.699C315.723 61.077 316.163 67.138 316.401 73.2C316.842 84.432 317.581 92.213 318.573 96.049C319.348 99.043 319.773 105.945 319.264 107.255C316.903 113.332 308.352 111.229 307.18 104.283C306.809 102.081 306.447 101.185 305.577 100.315C304.759 99.497 304.274 98.388 303.796 96.242C303.305 94.035 302.851 93.015 301.99 92.19C301.357 91.584 300.726 90.575 300.589 89.948C300.451 89.322 300.172 88.706 299.969 88.581C299.766 88.455 299.6 87.925 299.6 87.402C299.6 86.711 299.168 86.208 298.018 85.562C296.954 84.964 296.355 84.308 296.191 83.558C296.009 82.729 295.581 82.324 294.518 81.973C293.732 81.713 292.589 80.932 291.979 80.237C291.258 79.416 289.928 78.64 288.191 78.027C286.718 77.507 285.067 76.668 284.521 76.161C283.22 74.956 281.46 74.618 268 72.991C265.25 72.658 262.022 72.209 260.827 71.993C259.532 71.759 246.722 71.6 229.152 71.6H199.651L198.808 73.1L197.965 74.6L197.882 135.496L197.8 196.391L198.8 196.696C201.193 197.424 258.961 196.65 260.144 195.874C261.207 195.177 264.089 194.417 268.8 193.591C270.01 193.378 271.109 193.204 271.242 193.202C271.376 193.201 272.276 192.602 273.242 191.871C274.209 191.14 275.838 190.311 276.863 190.03C278.04 189.706 279.438 188.863 280.663 187.741C281.728 186.764 283.076 185.864 283.658 185.741C284.418 185.58 284.78 185.199 284.942 184.389C285.066 183.769 285.4 183.064 285.684 182.823C285.968 182.582 286.675 181.983 287.256 181.492C287.907 180.942 288.663 179.545 289.227 177.849C289.73 176.336 290.446 174.806 290.817 174.449C292.066 173.247 292.331 172.2 292.799 166.613C293.335 160.211 293.923 158.538 296 157.501C298.763 156.12 303.343 156.769 304.674 158.73C305.635 160.146 305.823 247.888 304.869 249.672C303.873 251.533 298.534 253.588 297.796 252.394C297.659 252.171 296.841 251.629 295.979 251.189C293.733 250.044 293.309 249.129 292.766 244.26C292.382 240.826 292.097 239.699 291.395 238.86C290.194 237.422 288.8 234.612 288.8 233.626C288.8 233.148 288.344 232.585 287.678 232.241C287.062 231.922 286.141 230.851 285.632 229.862C285.066 228.761 284.353 227.975 283.795 227.834C283.293 227.708 282.526 227.001 282.09 226.262C281.549 225.345 280.897 224.839 280.032 224.666C279.336 224.527 278.28 223.891 277.684 223.253C276.52 222.006 275.896 221.741 272.918 221.226C268.168 220.405 264.139 219.519 263.458 219.147C261.918 218.304 252.583 218.019 226.278 218.009L199.155 218L198.478 219.7C197.48 222.202 197.884 324.401 198.923 332.6C199.286 335.46 199.586 338.109 199.591 338.486C199.596 338.864 200.136 339.721 200.791 340.391C201.582 341.2 202.273 342.608 202.844 344.575C203.534 346.948 203.886 347.585 204.608 347.766C205.184 347.911 205.739 348.564 206.142 349.571C206.589 350.689 207.197 351.351 208.224 351.838C209.022 352.217 209.865 352.945 210.098 353.456C210.331 353.967 210.899 354.487 211.361 354.613C215.461 355.727 217.603 356.579 217.791 357.17C218.334 358.882 222.939 359.007 281.4 358.895C337.224 358.789 340.014 358.712 341.223 357.253C341.964 356.359 345.53 354.4 346.416 354.4C346.764 354.4 347.26 353.789 347.539 353.019C347.898 352.024 348.414 351.502 349.382 351.152C350.4 350.784 350.786 350.368 350.972 349.442C351.32 347.699 352.75 344.88 353.582 344.297C354.899 343.373 354.928 340.736 355.087 208.8C355.25 73.447 355.221 70.401 353.761 69.841C353.17 69.614 351.452 66.371 351.061 64.744C350.897 64.064 350.452 63.599 349.808 63.438C349.187 63.282 348.513 62.606 348.024 61.647C347.437 60.497 346.919 60.044 345.974 59.855C345.279 59.716 344.145 59.002 343.455 58.269C342.609 57.37 341.419 56.704 339.8 56.224C338.145 55.733 337.068 55.122 336.329 54.256L335.259 53L325.529 52.934C320.178 52.897 315.47 52.958 315.067 53.069Z" fill="#24048B"/>
    <path fill-rule="evenodd" clip-rule="evenodd" d="M16.585 35.3C16.481 35.575 16.441 114.01 16.498 209.6L16.6 383.4H198.2H379.8V209.2V35L198.288 34.9C53.287 34.819 16.737 34.9 16.585 35.3ZM337.353 50.79C339.053 51.068 340.2 51.56 341.487 52.563C342.467 53.327 343.765 54.061 344.372 54.194C344.978 54.327 346.21 55.103 347.11 55.918C349.249 57.855 350.936 59.188 351.258 59.195C351.4 59.198 352.113 60.145 352.841 61.3C353.57 62.455 354.736 64.082 355.434 64.915C356.295 65.943 356.85 67.184 357.164 68.78C357.419 70.073 358.076 71.976 358.625 73.008L359.623 74.886L359.606 206.807C359.588 346.198 359.65 340.878 358.019 342C357.859 342.11 357.514 343.309 357.251 344.665C356.67 347.666 355.81 349.479 354.821 349.793C354.413 349.923 353.959 350.508 353.812 351.094C353.464 352.482 348.871 357.066 347.479 357.416C346.886 357.565 346.4 357.94 346.4 358.249C346.4 359.042 344.23 360.267 341.834 360.827C340.715 361.088 339.53 361.527 339.2 361.803C336.642 363.938 340.58 363.8 282.2 363.799C224.788 363.798 223.823 363.766 221.851 361.794C221.566 361.508 219.909 361.059 218.169 360.795C214.454 360.232 212.126 359.383 211.599 358.398C211.391 358.01 210.743 357.572 210.159 357.425C207.691 356.806 201.676 350.855 200.783 348.148C200.518 347.346 199.793 346.157 199.171 345.507C198.408 344.708 197.896 343.588 197.597 342.062C197.353 340.818 196.619 338.704 195.966 337.364C194 333.33 194.005 333.48 194.002 273.869L194 217.538L195.194 216.344L196.389 215.15L232.094 215.323C270.796 215.511 271.044 215.525 274.334 217.714C275.14 218.25 276.81 218.992 278.044 219.364C279.278 219.735 280.808 220.542 281.444 221.157C282.08 221.772 283.365 222.777 284.3 223.391C285.236 224.005 286.364 225.094 286.807 225.812C287.251 226.53 288.037 227.394 288.554 227.733C289.495 228.35 291.6 231.559 291.6 232.377C291.6 232.616 292.141 233.304 292.802 233.906C293.716 234.738 294.192 235.747 294.791 238.124C295.225 239.842 295.957 241.778 296.419 242.427C296.909 243.114 297.353 244.524 297.486 245.809C297.722 248.095 298.586 248.875 300.199 248.256C301.257 247.85 301.091 163.34 300.029 161.358L299.258 159.919L298.485 161.46C298.06 162.307 297.599 164.006 297.46 165.235C297.322 166.464 296.666 168.784 296.004 170.39C295.342 171.996 294.8 173.546 294.8 173.835C294.8 175.584 293.832 178.369 292.862 179.409C292.252 180.064 291.335 181.437 290.825 182.46C290.316 183.482 289.516 184.524 289.049 184.774C288.582 185.024 287.798 185.927 287.307 186.781C286.716 187.809 286.038 188.416 285.3 188.578C284.596 188.733 284.001 189.238 283.686 189.95C283.339 190.734 282.711 191.22 281.623 191.546C280.762 191.804 279.307 192.643 278.388 193.41C277.469 194.177 276.241 194.914 275.659 195.047C273.314 195.581 270.943 196.474 269.933 197.204C266.787 199.478 258.46 199.999 225.4 199.989C197.893 199.981 195.916 199.877 194.7 198.375C193.992 197.502 193.56 73.482 194.256 70.884C194.88 68.556 194.08 68.612 228.6 68.467C266.82 68.306 277.931 68.837 281.078 70.976C281.891 71.528 283.864 72.271 285.461 72.626C287.683 73.121 288.696 73.585 289.776 74.603C290.552 75.335 291.734 76.054 292.403 76.201C293.093 76.352 294.092 77.06 294.71 77.834C295.31 78.585 296.019 79.2 296.286 79.2C296.554 79.2 297.274 79.732 297.886 80.382C298.499 81.032 299.765 82.363 300.7 83.34C301.635 84.317 302.4 85.411 302.4 85.771C302.4 86.132 303.015 87.042 303.767 87.794C304.746 88.772 305.275 89.79 305.63 91.379C305.931 92.725 306.57 94.094 307.252 94.859C308.363 96.102 309.279 98.626 309.791 101.851C310.219 104.545 313.539 107.08 314.568 105.498C315.374 104.261 314.409 87.011 313.175 80.6C312.068 74.847 311.709 71.065 311.369 61.551C311.043 52.46 311.146 51.759 312.914 50.99C314.459 50.318 333.519 50.162 337.353 50.79ZM85.1 52.724C85.375 53.07 85.6 54.106 85.6 55.027C85.6 57.429 88.114 58.4 94.33 58.4C98.738 58.4 102.845 59.186 106.2 60.671C107.96 61.45 109.95 62.329 110.621 62.625C111.293 62.921 112.39 63.666 113.06 64.281C113.73 64.897 114.958 66.021 115.789 66.779C116.62 67.538 117.82 69.283 118.455 70.657C119.091 72.03 119.879 73.422 120.206 73.749C120.533 74.076 121.057 75.481 121.371 76.872C122.506 81.901 123.232 84.557 123.589 84.987C124.701 86.326 124.8 96.583 124.8 210.2C124.8 325.48 124.717 333.527 123.506 335.767C123.082 336.552 122.857 337.34 121.493 342.827C121.188 344.052 120.392 345.852 119.724 346.827C119.056 347.802 118.374 349.033 118.208 349.562C116.722 354.305 107.576 359.393 98 360.805C96.13 361.08 94.403 361.461 94.163 361.65C92.609 362.872 68.709 363.05 66.514 361.856C65.901 361.522 63.83 360.769 61.912 360.182C59.993 359.594 57.994 358.728 57.469 358.257C56.944 357.785 56.091 357.13 55.574 356.8C53.171 355.267 48.191 349.556 47.55 347.6C47.297 346.83 46.531 345.12 45.846 343.8L44.6 341.4V207V72.6L46.064 69.6C46.869 67.95 47.643 66.204 47.784 65.72C47.925 65.237 48.583 64.261 49.244 63.552C49.906 62.844 51.008 61.485 51.692 60.532C52.376 59.579 53.119 58.8 53.342 58.8C53.566 58.8 54.609 58.075 55.66 57.188C56.711 56.302 58.433 55.177 59.486 54.688C60.539 54.2 61.94 53.422 62.6 52.961C64.549 51.598 65.4 51.471 74.2 51.23C82.944 50.991 83.817 51.11 85.1 52.724Z" fill="#FBFBFB"/>
</svg>
