<svg width="512" height="512" viewBox="0 0 512 512" fill="none" xmlns="http://www.w3.org/2000/svg">
<g clip-path="url(#clip0)">
<path d="M351.394 95.2444C323.493 75.0963 290.506 64.4469 256 64.4469C166.05 64.4469 92.8695 137.627 92.8695 227.577C92.8695 317.528 166.05 390.708 256 390.708C345.95 390.708 419.13 317.528 419.13 227.577C419.13 186.825 404.021 147.809 376.586 117.713C373.778 114.634 369.007 114.414 365.928 117.22C362.847 120.028 362.628 124.799 365.435 127.879C390.331 155.188 404.042 190.597 404.042 227.577C404.042 309.208 337.632 375.619 256 375.619C174.368 375.619 107.958 309.209 107.958 227.577C107.958 145.946 174.369 79.5343 256 79.5343C287.315 79.5343 317.247 89.196 342.562 107.475C345.939 109.914 350.655 109.154 353.094 105.776C355.534 102.398 354.773 97.6827 351.394 95.2444Z" fill="white"/>
<path d="M416.922 66.6558C373.938 23.6718 316.789 -7.62939e-06 256.001 -7.62939e-06C195.43 -7.62939e-06 138.491 23.366 95.672 65.7938C52.8499 108.226 28.9699 164.946 28.4317 225.51C28.0283 270.908 40.9612 314.857 65.834 352.607C68.1264 356.088 72.8059 357.05 76.2843 354.757C79.7637 352.466 80.7263 347.785 78.4339 344.307C55.2168 309.068 43.144 268.036 43.5212 225.644C44.5522 109.543 139.87 15.0885 256.001 15.0885C373.167 15.0885 468.488 110.41 468.488 227.576C468.488 323.117 404.191 407.408 312.13 432.556C310.663 432.958 309.351 433.792 308.367 434.952L256.503 496.058L204.94 435.305C203.946 434.133 202.616 433.294 201.131 432.897C161.132 422.237 125.311 400.181 97.5389 369.115C94.7616 366.01 89.9927 365.742 86.8854 368.519C83.7792 371.296 83.5116 376.065 86.2889 379.172C115.496 411.843 153.026 435.209 194.95 446.852L246.19 507.225C248.766 510.259 252.524 511.999 256.502 511.999C260.48 511.999 264.238 510.259 266.812 507.226L318.372 446.479C415.761 418.786 483.575 329.111 483.575 227.575C483.576 166.789 459.905 109.639 416.922 66.6558V66.6558Z" fill="white"/>
<path d="M331.268 245.4C335.436 245.4 338.813 242.023 338.813 237.856V226.203C340.201 226.574 341.639 226.768 343.1 226.768C343.685 226.768 344.274 226.737 344.864 226.676C349.301 226.213 353.293 224.051 356.105 220.584L363.573 211.376C369.376 204.224 368.277 193.684 361.122 187.88L270.259 114.178C261.996 107.477 250.005 107.476 241.742 114.177L150.878 187.881C143.724 193.685 142.625 204.224 148.426 211.376L155.896 220.584C160.171 225.856 167.018 227.827 173.187 226.184V287.34H170.92C166.753 287.34 163.376 290.717 163.376 294.884C163.376 299.051 166.753 302.428 170.92 302.428H341.114C345.282 302.428 348.658 299.051 348.658 294.884C348.658 290.717 345.282 287.34 341.114 287.34H338.812V270.007C338.812 265.84 335.435 262.463 331.267 262.463C327.1 262.463 323.723 265.84 323.723 270.007V287.34H289.318V281.166C289.318 262.793 274.372 247.846 255.999 247.846C237.626 247.846 222.68 262.793 222.68 281.166V287.34H188.276V215.828L255.999 160.896L323.723 215.828V237.856C323.724 242.023 327.102 245.4 331.268 245.4V245.4ZM237.769 281.167C237.769 271.115 245.948 262.936 256 262.936C266.052 262.936 274.231 271.115 274.231 281.167V287.341H237.769V281.167ZM251.248 145.323L175.941 206.407C175.937 206.41 175.934 206.413 175.931 206.416L169.888 211.318C169.46 211.665 169.009 211.697 168.703 211.67C168.398 211.638 167.964 211.51 167.616 211.081L160.146 201.873C159.797 201.442 159.762 200.99 159.794 200.687C159.825 200.383 159.953 199.948 160.383 199.599L251.248 125.896C252.625 124.78 254.313 124.221 256.001 124.221C257.689 124.221 259.376 124.78 260.754 125.897L351.619 199.598C352.049 199.948 352.177 200.383 352.208 200.687C352.24 200.99 352.205 201.442 351.855 201.873L344.387 211.081C344.038 211.51 343.604 211.638 343.3 211.669C342.999 211.7 342.545 211.667 342.115 211.317C342.115 211.317 342.114 211.317 342.114 211.316L260.753 145.324C257.983 143.077 254.017 143.077 251.248 145.323V145.323Z" fill="white"/>
<path d="M230.225 203.683C226.057 203.683 222.681 207.06 222.681 211.227C222.681 215.395 226.057 218.772 230.225 218.772H281.775C285.943 218.772 289.319 215.395 289.319 211.227C289.319 207.06 285.943 203.683 281.775 203.683H230.225Z" fill="white"/>
</g>
<defs>
<clipPath id="clip0">
<rect width="512" height="512" fill="white"/>
</clipPath>
</defs>
</svg>
